inDegrees=yes
name=IK-live
DataType=double
version=3
OpenSimVersion=4.1
endheader
time	pelvis_tilt	pelvis_list	pelvis_rotation	pelvis_tx	pelvis_ty	pelvis_tz	hip_flexion_r	hip_adduction_r	hip_rotation_r	knee_angle_r	ankle_angle_r	subtalar_angle_r	mtp_angle_r	hip_flexion_l	hip_adduction_l	hip_rotation_l	knee_angle_l	ankle_angle_l	subtalar_angle_l	mtp_angle_l	lumbar_extension	lumbar_bending	lumbar_rotation	neck_flex	neck_latbend	neck_rot	arm_flex_r	arm_add_r	arm_rot_r	elbow_flex_r	pro_sup_r	wrist_flex_r	wrist_dev_r	arm_flex_l	arm_add_l	arm_rot_l	elbow_flex_l	pro_sup_l	wrist_flex_l	wrist_dev_l
0	-15.01316843925776	2.165426121588249	-182.3042097650611	0.2341366603171506	0.04326292228651554	-1.326684523481465	-22.57117169827992	-1.591976316804377	-3.241458145969817	5.899560354604904	2.451982624139334	1.987972377786656	0	-24.74788768789517	-3.395140484746916	-11.58000132048591	9.793848132074926	-0.4439473045988533	4.250290820099795	0	-21.37711699760957	1.659277491615732	3.206407148933037	0	0	0	0.7803814904655015	-15.17650176135079	33.31116667015883	7.010833948188464	24.87466748631676	0	0.01262812200301323	5.871343199929028	-13.22979977351608	43.89854431991968	6.825565616500922	33.48036234359695	0	0.01262812200301323
3.3330805	-24.47758210878639	3.871879030870981	-187.3660401595097	0.2341366603171506	0.04326292228651554	-1.326684523481465	-22.57117169827992	-1.591976316804377	-3.241458145969817	5.899560354604904	2.451982624139334	1.987972377786656	0	-24.74788768789517	-3.395140484746916	-11.58000132048591	9.793848132074926	-0.4439473045988533	4.250290820099795	0	-21.37711699760957	1.659277491615732	3.206407148933037	0	0	0	0.8985469755578318	-15.17604485490634	33.19626250260267	7.433691526182674	25.05192895818855	0	0.08165014294344307	5.980626017457104	-13.23438287046743	43.73961163312823	7.250692979404668	33.57790597704691	0	0.08165014294344307
3.4979394	-29.14980411282492	8.362244532090719	-188.3783023650181	0.2341366603171506	0.04326292228651554	-1.326684523481465	-22.57117169827992	-1.591976316804377	-3.241458145969817	5.899560354604904	2.451982624139334	1.987972377786656	0	-24.74788768789517	-3.395140484746916	-11.58000132048591	9.793848132074926	-0.4439473045988533	4.250290820099795	0	-21.37711699760957	1.659277491615732	3.206407148933037	0	0	0	1.016500807321585	-15.17558913124923	33.08180523666456	7.851424092720124	25.22744515019118	0	0.1497061546951113	6.089723247254144	-13.23895409844177	43.58138803239418	7.67063407540083	33.6745929552584	0	0.1497061546951113
3.6499262	-33.60393982466427	18.28029550362999	-196.3838744651125	0.2341366603171506	0.04326292228651554	-1.326684523481465	-22.57117169827992	-1.591976316804377	-3.241458145969817	5.899560354604904	2.451982624139334	1.987972377786656	0	-24.74788768789517	-3.395140484746916	-11.58000132048591	9.793848132074926	-0.4439473045988533	4.250290820099795	0	-21.37711699760957	1.659277491615732	3.206407148933037	0	0	0	1.134243634766648	-15.17513458731757	32.96779256927528	8.264168095606729	25.40123842821253	0	0.2168101220899806	6.198635408860652	-13.24351348820144	43.42386868728132	8.085528123590064	33.77043159322629	0	0.2168101220899806
3.8157587	-25.33773276263566	29.02520313205327	-203.1252981711609	0.2341366603171506	0.04326292228651554	-1.326684523481465	-22.57117169827992	-1.591976316804377	-3.241458145969817	5.899560354604904	2.451982624139334	1.987972377786656	0	-24.74788768789517	-3.395140484746916	-11.58000132048591	9.793848132074926	-0.4439473045988533	4.250290820099795	0	-21.37711699760957	1.659277491615732	3.206407148933037	0	0	0	1.251776103527719	-15.17468122005739	32.85422221564057	8.672053889893817	25.57333072394507	0	0.2829757897237203	6.307363019365292	-13.24806107042884	43.26704882163838	8.495508076866138	33.8654301047583	0	0.2829757897237203
3.9826922	-19.34962355254135	13.31824106110138	-216.0903709234487	0.2341366603171506	0.04326292228651554	-1.326684523481465	-22.57117169827992	-1.591976316804377	-3.241458145969817	5.899560354604904	2.451982624139334	1.987972377786656	0	-24.74788768789517	-3.395140484746916	-11.58000132048591	9.793848132074926	-0.4439473045988533	4.250290820099795	0	-21.37711699760957	1.659277491615732	3.206407148933037	0	0	0	1.369098855889391	-15.17422902642265	32.74109190902605	9.075206114383789	25.74374354733893	0	0.3482166861771034	6.415906593421528	-13.25259687572666	43.11092371271442	8.900701012159027	33.95959660421963	0	0.3482166861771034
4.1495804	-15.23299926188972	13.66846154812696	-223.8001336007499	0.2341366603171506	0.04326292228651554	-1.326684523481465	-22.57117169827992	-1.591976316804377	-3.241458145969817	5.899560354604904	2.451982624139334	1.987972377786656	0	-24.74788768789517	-3.395140484746916	-11.58000132048591	9.793848132074926	-0.4439473045988533	4.250290820099795	0	-21.37711699760957	1.659277491615732	3.206407148933037	0	0	0	1.486212530811093	-15.17377800337516	32.62839940054563	9.473744038687315	25.91249799858798	0	0.4125461281275418	6.524266643264125	-13.25712093461807	42.95548869029263	9.301228489921245	34.05293910823591	0	0.4125461281275418
4.3144971	-13.79373491092441	13.30034866455188	-222.757481881456	0.2341366603171506	0.04326292228651554	-1.326684523481465	-22.57117169827992	-1.591976316804377	-3.241458145969817	5.899560354604904	2.451982624139334	1.987972377786656	0	-24.74788768789517	-3.395140484746916	-11.58000132048591	9.793848132074926	-0.4439473045988533	4.250290820099795	0	-21.37711699760957	1.659277491615732	3.206407148933037	0	0	0	1.603117763951697	-15.17332814788463	32.51614245895307	9.867781883602348	26.07961477967043	0	0.4759772243546095	6.632443678725476	-13.26163327754697	42.80073913584233	9.697206885772552	34.14546553735549	0	0.4759772243546095
4.4664474	-16.05637586540934	9.740384092859472	-223.0107692861128	0.2341366603171506	0.04326292228651554	-1.326684523481465	-22.57117169827992	-1.591976316804377	-3.241458145969817	5.899560354604904	2.451982624139334	1.987972377786656	0	-24.74788768789517	-3.395140484746916	-11.58000132048591	9.793848132074926	-0.4439473045988533	4.250290820099795	0	-21.37711699760957	1.659277491615732	3.206407148933037	0	0	0	1.719815187693959	-15.17287945692857	32.40431887043673	10.2574291172823	26.24511420546368	0	0.5385228796432389	6.740438207251852	-13.26613393487814	42.64667048168867	10.08874769689704	34.23718371767247	0	0.5385228796432389
4.6322718	-16.42157078326345	10.89377520784303	-223.6387570381088	0.2341366603171506	0.04326292228651554	-1.326684523481465	-22.57117169827992	-1.591976316804377	-3.241458145969817	5.899560354604904	2.451982624139334	1.987972377786656	0	-24.74788768789517	-3.395140484746916	-11.58000132048591	9.793848132074926	-0.4439473045988533	4.250290820099795	0	-21.37711699760957	1.659277491615732	3.206407148933037	0	0	0	1.836305431168688	-15.17243192749238	32.29292643841755	10.64279072939512	26.40901621445273	0	0.6001957985881315	6.848250733919461	-13.2706229368975	42.49327821019934	10.47595782550535	34.3281013824115	0	0.6001957985881315
4.7991675	-17.71455380766082	11.06473913003214	-225.0855745705908	0.2341366603171506	0.04326292228651554	-1.326684523481465	-22.57117169827992	-1.591976316804377	-3.241458145969817	5.899560354604904	2.451982624139334	1.987972377786656	0	-24.74788768789517	-3.395140484746916	-11.58000132048591	9.793848132074926	-0.4439473045988533	4.250290820099795	0	-21.37711699760957	1.659277491615732	3.206407148933037	0	0	0	1.952589120278705	-15.1719855565692	32.18196298334995	11.02396748524215	26.57134037905005	0	0.6610084893027449	6.955881761450359	-13.27510031381228	42.34055785298821	10.85893984142837	34.41822617347565	0	0.6610084893027449
4.9661312	-16.91874600493035	10.94805367997857	-223.8480292523783	0.2341366603171506	0.04326292228651554	-1.326684523481465	-22.57117169827992	-1.591976316804377	-3.241458145969817	5.899560354604904	2.451982624139334	1.987972377786656	0	-24.74788768789517	-3.395140484746916	-11.58000132048591	9.793848132074926	-0.4439473045988533	4.250290820099795	0	-21.37711699760957	1.659277491615732	3.206407148933037	0	0	0	2.068666877722554	-15.17154034115999	32.07142634252587	11.40105616160055	26.732105915544	0	0.7209732670360824	7.063331790228288	-13.27956609575124	42.18850499013526	11.23779222569213	34.50756564295813	0	0.7209732670360824
5.1330008	-11.80771757368914	13.28024682085541	-215.9053450310773	0.2341366603171506	0.04326292228651554	-1.326684523481465	-22.57117169827992	-1.591976316804377	-3.241458145969817	5.899560354604904	2.451982624139334	1.987972377786656	0	-24.74788768789517	-3.395140484746916	-11.58000132048591	9.793848132074926	-0.4439473045988533	4.250290820099795	0	-21.37711699760957	1.659277491615732	3.206407148933037	0	0	0	2.184539323018026	-15.17109627827347	31.96131436988165	11.77414976587248	26.89133169369207	0	0.7801022577004321	7.17060131831429	-13.28402031276489	42.03711524942243	11.61260959673258	34.59612725461925	0	0.7801022577004321
5.2979349	-9.429746654283681	13.93507279737185	-203.4224633373247	0.2341366603171506	0.04326292228651554	-1.326684523481465	-22.57117169827992	-1.591976316804377	-3.241458145969817	5.899560354604904	2.451982624139334	1.987972377786656	0	-24.74788768789517	-3.395140484746916	-11.58000132048591	9.793848132074926	-0.4439473045988533	4.250290820099795	0	-21.37711699760957	1.659277491615732	3.206407148933037	0	0	0	2.300207072525418	-15.17065336492609	31.85162493580796	12.1433377399643	27.04903624597425	0	0.8384074013129678	7.277690841462268	-13.28846299482564	41.88638430558499	11.98348292074084	34.68391838532948	0	0.8384074013129678
